<?xml version="1.0" encoding="utf-8"?>
<!-- Generator: Adobe Illustrator 15.0.0, SVG Export Plug-In . SVG Version: 6.00 Build 0)  -->
<!DOCTYPE svg PUBLIC "-//W3C//DTD SVG 1.1//EN" "http://www.w3.org/Graphics/SVG/1.1/DTD/svg11.dtd">
<svg version="1.1" id="Layer_1" xmlns="http://www.w3.org/2000/svg" xmlns:xlink="http://www.w3.org/1999/xlink" x="0px" y="0px"
	 width="1557.135px" height="726.948px" viewBox="0 0 1557.135 726.948" enable-background="new 0 0 1557.135 726.948"
	 xml:space="preserve">
<rect fill="#62BFBE" width="1557.135" height="726.948"/>
<path fill="#FFFFFF" d="M463.503,494.684c0-10.839,2.399-22.754,6.669-30.754h-41.121c4.271,8,6.671,19.915,6.671,30.754
	c0,36.988-29.633,67.674-65.439,72.023l-44.401,0.772v21.45h46.285H524.5h47.382v-21.45l-47.599-1.117
	C489.713,560.909,463.503,530.786,463.503,494.684"/>
<path fill="#FFFFFF" d="M128.882,485.93h630v-347h-630V485.93z M721.882,460.93h-556v-285h556V460.93z"/>
<rect x="160.382" y="171.43" fill="#34373E" width="563" height="285"/>
<rect x="160.382" y="171.43" fill="none" stroke="#FFFFFF" stroke-width="13" stroke-miterlimit="10" width="563" height="285"/>
<rect x="183.882" y="196.93" fill="#62BFBE" width="81" height="24"/>
<rect x="183.882" y="239.93" fill="#62BFBE" width="434" height="24"/>
<rect x="183.882" y="277.93" fill="#62BFBE" width="385" height="24"/>
<rect x="183.882" y="315.93" fill="#62BFBE" width="491" height="24"/>
<rect x="183.882" y="353.93" fill="#62BFBE" width="229" height="25"/>
<g opacity="0.2">
	<g>
		<defs>
			<rect id="SVGID_1_" x="362.244" y="209.769" width="192.66" height="144.66"/>
		</defs>
		<clipPath id="SVGID_2_">
			<use xlink:href="#SVGID_1_"  overflow="visible"/>
		</clipPath>
		<path clip-path="url(#SVGID_2_)" fill="#62BFBE" d="M367.748,348.301c5.07,7.312,13.414,7.451,18.872,3.69l163.676-111.465
			c5.444-3.765,6.32-10.282,1.253-17.601l-1.416-2.039c-5.073-7.314-14.955-13.77-20.397-10.011L366.055,322.343
			c-5.448,3.76-4.798,16.598,0.279,23.914L367.748,348.301z"/>
	</g>
</g>
<g opacity="0.2">
	<g>
		<defs>
			<rect id="SVGID_3_" x="326.124" y="278.279" width="243.229" height="144.66"/>
		</defs>
		<clipPath id="SVGID_4_">
			<use xlink:href="#SVGID_3_"  overflow="visible"/>
		</clipPath>
		<path clip-path="url(#SVGID_4_)" fill="#62BFBE" d="M565.993,298.651l-1.416-2.043c-5.067-7.312-14.951-13.768-20.395-10.005
			l-26.517,18.525c1.921-3.695,1.375-8.478-2.237-13.691l-1.412-2.039c-5.072-7.317-14.955-13.772-20.397-10.009L329.941,390.849
			c-5.45,3.767-4.801,16.601,0.275,23.921l1.413,2.04c5.072,7.314,13.416,7.456,18.867,3.693l80.454-54.791
			c-5.311,3.866-4.638,16.553,0.393,23.817l1.413,2.036c5.071,7.314,13.421,7.457,18.876,3.694l113.109-79.013
			C570.188,312.484,571.062,305.963,565.993,298.651"/>
	</g>
</g>
<path fill="#C03837" d="M1003.284,422.098c-1.477,0-2.877-0.646-3.834-1.769L856.93,253.13c-1.476-1.729-1.608-4.23-0.329-6.106
	l43.311-63.455c0.939-1.375,2.496-2.198,4.16-2.198h198.424c1.664,0,3.221,0.823,4.158,2.198l43.312,63.455
	c1.279,1.876,1.146,4.377-0.328,6.106l-142.521,167.199C1006.159,421.452,1004.759,422.098,1003.284,422.098"/>
<path fill="#862C29" d="M1102.495,186.407l43.311,63.455l-142.522,167.199L860.761,249.862l43.311-63.455H1102.495
	 M1102.495,176.335H904.071c-3.329,0-6.441,1.645-8.318,4.394l-43.312,63.455c-2.562,3.753-2.293,8.755,0.655,12.213l142.521,167.2
	c1.913,2.244,4.715,3.537,7.665,3.537s5.752-1.293,7.665-3.537l142.523-167.2c2.947-3.458,3.214-8.46,0.652-12.213l-43.311-63.455
	C1108.937,177.98,1105.823,176.335,1102.495,176.335"/>
<polygon fill="#F05E53" points="904.071,186.407 1102.495,186.407 1003.284,417.062 "/>
<polygon fill="#F05E53" points="1145.806,249.862 1102.494,186.407 904.071,186.407 860.761,249.862 "/>
<polygon fill="#C03837" points="931.366,249.862 1003.284,186.407 1075.2,249.862 "/>
<polygon fill="#DC5046" points="860.761,249.862 931.364,249.862 896.063,227.426 "/>
<polygon fill="#DC5046" points="1075.2,249.862 1145.804,249.862 1110.503,227.426 "/>
<polygon fill="#8B2924" points="931.366,249.862 860.762,249.862 896.063,272.299 "/>
<polygon fill="#8B2924" points="1145.804,249.862 1075.2,249.862 1110.502,272.299 "/>
<polygon fill="#DC5046" points="1075.2,249.583 1003.282,281.311 931.365,249.583 "/>
<path fill="#C03837" d="M1245.003,505.327c-0.922,0-1.797-0.404-2.395-1.104l-89.01-104.424c-0.922-1.08-1.004-2.642-0.205-3.813
	l27.05-39.63c0.586-0.858,1.558-1.372,2.598-1.372h123.925c1.039,0,2.012,0.513,2.598,1.372l27.047,39.63
	c0.799,1.172,0.716,2.733-0.205,3.813l-89.01,104.424C1246.798,504.923,1245.923,505.327,1245.003,505.327"/>
<path fill="#862C29" d="M1306.966,358.129l27.047,39.628l-89.011,104.424l-89.011-104.424l27.05-39.628H1306.966 M1306.966,351.838
	h-123.925c-2.079,0-4.022,1.027-5.194,2.744l-27.051,39.629c-1.6,2.343-1.433,5.468,0.408,7.627l89.012,104.424
	c1.193,1.402,2.943,2.21,4.786,2.21s3.593-0.808,4.787-2.21l89.011-104.424c1.84-2.159,2.008-5.283,0.408-7.627l-27.047-39.628
	C1310.988,352.865,1309.044,351.838,1306.966,351.838"/>
<polygon fill="#F05E53" points="1183.042,358.129 1306.966,358.129 1245.003,502.183 "/>
<polygon fill="#F05E53" points="1334.013,397.758 1306.965,358.129 1183.041,358.129 1155.992,397.758 "/>
<polygon fill="#C03837" points="1200.087,397.758 1245.002,358.129 1289.917,397.758 "/>
<polygon fill="#DC5046" points="1155.991,397.758 1200.087,397.758 1178.04,383.744 "/>
<polygon fill="#DC5046" points="1289.917,397.758 1334.013,397.758 1311.964,383.744 "/>
<polygon fill="#8B2924" points="1200.087,397.758 1155.991,397.758 1178.04,411.771 "/>
<polygon fill="#8B2924" points="1334.013,397.758 1289.917,397.758 1311.964,411.771 "/>
<polygon fill="#DC5046" points="1289.917,397.585 1245.003,417.398 1200.087,397.585 "/>
<path fill="#C03837" d="M1110.503,579.679c-0.465,0-0.906-0.203-1.207-0.557l-44.871-52.64c-0.463-0.544-0.506-1.331-0.103-1.922
	l13.636-19.979c0.295-0.432,0.785-0.69,1.311-0.69h62.469c0.525,0,1.016,0.259,1.311,0.69l13.635,19.979
	c0.404,0.591,0.361,1.378-0.104,1.922l-44.871,52.64C1111.407,579.476,1110.966,579.679,1110.503,579.679"/>
<path fill="#862C29" d="M1141.737,505.477l13.637,19.978l-44.871,52.64l-44.871-52.64l13.636-19.978H1141.737 M1141.737,502.306
	h-62.47c-1.048,0-2.028,0.518-2.619,1.383l-13.636,19.979c-0.807,1.181-0.721,2.756,0.206,3.845l44.87,52.64
	c0.603,0.706,1.484,1.113,2.414,1.113c0.928,0,1.81-0.407,2.412-1.113l44.871-52.64c0.928-1.089,1.014-2.664,0.207-3.845
	l-13.637-19.979C1143.767,502.823,1142.786,502.306,1141.737,502.306"/>
<polygon fill="#F05E53" points="1079.269,505.477 1141.737,505.477 1110.502,578.094 "/>
<polygon fill="#F05E53" points="1155.374,525.454 1141.737,505.477 1079.269,505.477 1065.632,525.454 "/>
<polygon fill="#C03837" points="1087.86,525.454 1110.503,505.477 1133.144,525.454 "/>
<polygon fill="#DC5046" points="1065.632,525.454 1087.86,525.454 1076.746,518.39 "/>
<polygon fill="#DC5046" points="1133.144,525.454 1155.372,525.454 1144.258,518.39 "/>
<polygon fill="#8B2924" points="1087.86,525.454 1065.632,525.454 1076.747,532.518 "/>
<polygon fill="#8B2924" points="1155.374,525.454 1133.145,525.454 1144.259,532.518 "/>
<polygon fill="#DC5046" points="1133.144,525.366 1110.502,535.354 1087.86,525.366 "/>
</svg>
