<?xml version="1.0" encoding="utf-8"?>
<!-- Generator: Adobe Illustrator 15.0.0, SVG Export Plug-In . SVG Version: 6.00 Build 0)  -->
<!DOCTYPE svg PUBLIC "-//W3C//DTD SVG 1.1//EN" "http://www.w3.org/Graphics/SVG/1.1/DTD/svg11.dtd">
<svg version="1.1" id="Layer_1" xmlns="http://www.w3.org/2000/svg" xmlns:xlink="http://www.w3.org/1999/xlink" x="0px" y="0px"
	 width="1557.135px" height="967.748px" viewBox="0 0 1557.135 967.748" enable-background="new 0 0 1557.135 967.748"
	 xml:space="preserve">
<rect fill="#053F5F" width="1557.135" height="967.748"/>
<path fill="#FFFFFF" d="M537.793,546.881c-94.227,101.916-206.165,151.662-250.019,111.116
	c-43.86-40.551-3.03-156.053,91.198-257.945c94.233-101.925,206.176-151.66,250.03-111.109
	C672.857,329.492,632.031,444.975,537.793,546.881"/>
<path fill="#FFFFFF" d="M292.16,712.586c-15.825,17.104-71.859,49.891-88.974,34.071c-17.101-15.818,11.191-74.252,27.015-91.352
	c15.816-17.1,42.509-18.159,59.617-2.34C306.924,668.782,307.969,695.483,292.16,712.586"/>
<path fill="#62BFBE" d="M282.361,693.733c-11.044,11.95-47.81,37.073-56.811,28.741c-8.997-8.32,13.154-46.942,24.207-58.88
	c11.04-11.957,27.312-14.901,36.308-6.575C295.076,665.346,293.42,681.788,282.361,693.733"/>
<path fill="#62BFBE" d="M280.067,707.296c-4.745,6.929-21.572,22.589-26.646,19.091c-5.064-3.478,3.51-24.792,8.282-31.718
	c4.757-6.94,12.732-9.733,17.817-6.246C284.59,691.91,284.83,700.356,280.067,707.296"/>
<path fill="#62BFBE" d="M236.778,667.271c-6.524,5.27-20.837,23.266-16.95,28.051c3.851,4.791,24.45-5.44,30.979-10.731
	c6.535-5.289,8.706-13.463,4.829-18.256C251.763,661.559,243.314,661.97,236.778,667.271"/>
<path fill="#FFFFFF" d="M404.447,558.171c-29.756,32.176-79.97,34.145-112.152,4.391c-15.497-14.328-110.887-5.565-110.887-5.565
	c-1.417-21.02,88.386-97.89,106.564-111.816c38.297-27.104,79.896-28.921,112.067,0.831
	C432.234,475.772,434.196,525.978,404.447,558.171"/>
<path fill="#FFFFFF" d="M377.835,533.565c-29.76,32.18-27.795,82.388,4.39,112.145c15.492,14.324,14.223,110.113,14.223,110.113
	c21.064-0.226,90.671-95.774,103.138-114.982c24.024-40.304,22.584-81.922-9.601-111.679
	C457.797,499.41,407.585,501.379,377.835,533.565"/>
<path fill="#62BFBE" d="M621.837,296.683c-22.549-20.848-59.501-19.863-91.864-2.896c0,0,4.083,21.818,43.115,57.899
	c39.029,36.081,58.83,36.351,58.83,36.351C646.299,354.46,644.38,317.529,621.837,296.683"/>
<polygon fill="#FFFFFF" points="620.32,291.315 634.032,303.995 696.327,224.03 "/>
<path fill="#FFFFFF" d="M699.435,230.407c-2.784,2.994-7.459,3.181-10.453,0.406c-2.998-2.773-3.193-7.447-0.411-10.451
	c2.765-2.994,7.453-3.175,10.439-0.412C702.022,222.729,702.191,227.413,699.435,230.407"/>
<path fill="#FFFFFF" d="M636.57,258.155c-1.678,1.8,3.695,9.479,11.975,17.154c8.293,7.68,16.39,12.421,18.056,10.611
	c1.673-1.807-3.7-9.489-11.989-17.161C646.321,261.098,638.241,256.332,636.57,258.155"/>
<path fill="#FFFFFF" d="M615.688,260.798c-1.955,2.121,7.053,13.684,20.147,25.781c13.093,12.109,25.302,20.193,27.291,18.043
	c1.952-2.113-7.063-13.651-20.16-25.754C629.868,266.753,617.667,258.679,615.688,260.798"/>
<path fill="#62BFBE" d="M387.721,591.116c-35.81,38.675-97.315,87.731-107.968,77.87c-10.65-9.867,33.573-74.933,69.388-113.597
	c35.817-38.671,49.665-36.298,60.328-26.429C420.118,538.821,423.547,552.454,387.721,591.116"/>
<polygon fill="#62BFBE" points="516.515,377.33 562.917,404.733 519.418,425.398 553.822,445.717 435.244,477.79 492.041,437.038 
	472.845,425.698 "/>
<path fill="#E5E2D1" d="M1386.464,679.585c0,1.61-2.619,2.919-5.837,2.919H893.034c-3.219,0-5.834-1.309-5.834-2.919V646.43
	c0-1.611,2.615-2.919,5.834-2.919h487.593c3.218,0,5.837,1.308,5.837,2.919V679.585z"/>
<path fill="#E5E2D1" d="M1292.95,415.656c0,1.612-1.309,2.918-2.918,2.918H890.12c-1.61,0-2.92-1.306-2.92-2.918v-53.587
	c0-1.616,1.31-2.918,2.92-2.918h399.912c1.609,0,2.918,1.302,2.918,2.918V415.656z"/>
<path fill="#E5E2D1" d="M1427.597,526.501c0,1.611-2.834,2.919-6.319,2.919H893.517c-3.487,0-6.315-1.308-6.315-2.919v-33.155
	c0-1.609,2.828-2.919,6.315-2.919h527.761c3.485,0,6.319,1.31,6.319,2.919V526.501z"/>
<path fill="#E5E2D1" d="M1468.218,599.768c0,1.61-3.047,2.918-6.795,2.918H893.991c-3.748,0-6.791-1.308-6.791-2.918v-33.155
	c0-1.61,3.043-2.919,6.791-2.919h567.432c3.748,0,6.795,1.309,6.795,2.919V599.768z"/>
</svg>
