<?xml version="1.0" encoding="utf-8"?>
<!-- Generator: Adobe Illustrator 15.0.0, SVG Export Plug-In . SVG Version: 6.00 Build 0)  -->
<!DOCTYPE svg PUBLIC "-//W3C//DTD SVG 1.1//EN" "http://www.w3.org/Graphics/SVG/1.1/DTD/svg11.dtd">
<svg version="1.1" id="Layer_1" xmlns="http://www.w3.org/2000/svg" xmlns:xlink="http://www.w3.org/1999/xlink" x="0px" y="0px"
	 width="1557.135px" height="903.024px" viewBox="0 0 1557.135 903.024" enable-background="new 0 0 1557.135 903.024"
	 xml:space="preserve">
<rect fill="#62BFBE" width="1557.135" height="903.024"/>
<path fill="#FFFFFF" d="M1313.187,410.951l7.058-60.927h-312.643l43.421,364h225.8l12.81-105.475
	c1.076,0.014,2.117,1.487,3.209,1.487c55.434,0,100.527-45.151,100.527-100.577C1393.368,461.014,1358.89,420.382,1313.187,410.951
	 M1292.841,598.729c-0.578,0-1.141-0.074-1.719-0.087l20.561-173.57c39.427,8.655,69.039,43.807,69.039,85.795
	C1380.722,559.316,1341.304,598.729,1292.841,598.729"/>
<polygon fill="#053F5F" points="1248.841,714.024 1231.337,714.024 1267.823,350.024 1304.29,350.024 "/>
<g opacity="0.2">
	<g>
		<defs>
			<rect id="SVGID_1_" x="1022.653" y="203.023" width="290.58" height="147"/>
		</defs>
		<clipPath id="SVGID_2_">
			<use xlink:href="#SVGID_1_"  overflow="visible"/>
		</clipPath>
		<path clip-path="url(#SVGID_2_)" fill="#FFFFFF" d="M1287.981,203.024h-240.063c-13.948,0-25.267,12.044-25.267,26
			c0,13.955,11.318,26,25.267,26h56.856c13.955,0,25.271,6.042,25.271,20c0,13.955-11.316,20-25.271,20h-44.22
			c-13.956,0-25.263,13.542-25.263,27.5c0,13.956,11.307,27.5,25.263,27.5h132.659c13.959,0,25.271-13.544,25.271-27.5
			c0-13.958-11.312-27.5-25.271-27.5h56.857c13.955,0,25.275-6.045,25.275-20c0-13.958-11.32-20-25.275-20h37.91
			c13.953,0,25.256-12.045,25.256-26C1313.237,215.068,1301.935,203.024,1287.981,203.024"/>
	</g>
</g>
<polygon fill="#053F5F" points="1114.591,435.024 1198.081,435.024 1156.343,499.024 1218.235,499.024 1085.32,633.711 
	1128.987,533.024 1094.447,533.024 "/>
<path fill="#E5E2D1" d="M514.016,364.07c0,1.612-1.31,2.918-2.919,2.918H111.185c-1.61,0-2.92-1.306-2.92-2.918v-53.587
	c0-1.617,1.31-2.918,2.92-2.918h399.912c1.609,0,2.919,1.301,2.919,2.918V364.07z"/>
<path fill="#E5E2D1" d="M648.661,474.915c0,1.611-2.834,2.919-6.319,2.919H114.581c-3.487,0-6.316-1.308-6.316-2.919V441.76
	c0-1.61,2.829-2.919,6.316-2.919h527.761c3.485,0,6.319,1.309,6.319,2.919V474.915z"/>
<path fill="#E5E2D1" d="M689.283,548.182c0,1.61-3.048,2.918-6.795,2.918H115.056c-3.748,0-6.792-1.308-6.792-2.918v-33.155
	c0-1.61,3.044-2.919,6.792-2.919h567.432c3.747,0,6.795,1.309,6.795,2.919V548.182z"/>
<path fill="#E5E2D1" d="M607.528,621.447c0,1.611-2.619,2.919-5.837,2.919H114.099c-3.22,0-5.835-1.308-5.835-2.919v-33.155
	c0-1.61,2.615-2.919,5.835-2.919h487.592c3.218,0,5.837,1.309,5.837,2.919V621.447z"/>
</svg>
