<?xml version="1.0" encoding="utf-8"?>
<!-- Generator: Adobe Illustrator 15.0.0, SVG Export Plug-In . SVG Version: 6.00 Build 0)  -->
<!DOCTYPE svg PUBLIC "-//W3C//DTD SVG 1.1//EN" "http://www.w3.org/Graphics/SVG/1.1/DTD/svg11.dtd">
<svg version="1.1" id="Layer_1" xmlns="http://www.w3.org/2000/svg" xmlns:xlink="http://www.w3.org/1999/xlink" x="0px" y="0px"
	 width="1085.459px" height="1157.837px" viewBox="0 0 1085.459 1157.837" enable-background="new 0 0 1085.459 1157.837"
	 xml:space="preserve">
<rect fill="#053F5F" width="1085.459" height="1157.837"/>
<g opacity="0.2">
	<g>
		<defs>
			<rect id="SVGID_1_" y="22.283" width="1085.459" height="211.85"/>
		</defs>
		<clipPath id="SVGID_2_">
			<use xlink:href="#SVGID_1_"  overflow="visible"/>
		</clipPath>
		<rect y="22.287" clip-path="url(#SVGID_2_)" fill="#FFFFFF" width="1085.459" height="211.848"/>
	</g>
</g>
<g opacity="0.2">
	<g>
		<defs>
			<rect id="SVGID_3_" y="248.862" width="1085.459" height="211.841"/>
		</defs>
		<clipPath id="SVGID_4_">
			<use xlink:href="#SVGID_3_"  overflow="visible"/>
		</clipPath>
		<rect y="248.857" clip-path="url(#SVGID_4_)" fill="#FFFFFF" width="1085.459" height="211.848"/>
	</g>
</g>
<g opacity="0.2">
	<g>
		<defs>
			<rect id="SVGID_5_" y="702.003" width="1085.459" height="211.84"/>
		</defs>
		<clipPath id="SVGID_6_">
			<use xlink:href="#SVGID_5_"  overflow="visible"/>
		</clipPath>
		<rect y="701.998" clip-path="url(#SVGID_6_)" fill="#FFFFFF" width="1085.459" height="211.848"/>
	</g>
</g>
<g opacity="0.2">
	<g>
		<defs>
			<rect id="SVGID_7_" y="928.562" width="1085.459" height="211.86"/>
		</defs>
		<clipPath id="SVGID_8_">
			<use xlink:href="#SVGID_7_"  overflow="visible"/>
		</clipPath>
		<rect y="928.566" clip-path="url(#SVGID_8_)" fill="#FFFFFF" width="1085.459" height="211.854"/>
	</g>
</g>
<path fill="#62BFBE" d="M845.119,155.236c0,1.628-1.32,2.942-2.945,2.942h-590.84c-1.625,0-2.944-1.314-2.944-2.942v-54.049
	c0-1.629,1.319-2.949,2.944-2.949h590.84c1.625,0,2.945,1.32,2.945,2.949V155.236z"/>
<path fill="#62BFBE" d="M657.656,381.807c0,1.627-1.32,2.946-2.945,2.946H251.334c-1.625,0-2.945-1.319-2.945-2.946v-54.055
	c0-1.623,1.32-2.939,2.945-2.939h403.377c1.625,0,2.945,1.316,2.945,2.939V381.807z"/>
<path fill="#62BFBE" d="M657.656,608.381c0,1.623-1.32,2.943-2.945,2.943H251.334c-1.625,0-2.945-1.32-2.945-2.943v-54.055
	c0-1.628,1.32-2.944,2.945-2.944h403.377c1.625,0,2.945,1.316,2.945,2.944V608.381z"/>
<path fill="#62BFBE" d="M779.781,834.949c0,1.625-1.318,2.945-2.943,2.945H251.334c-1.625,0-2.945-1.32-2.945-2.945v-54.054
	c0-1.627,1.32-2.942,2.945-2.942h525.504c1.625,0,2.943,1.315,2.943,2.942V834.949z"/>
<path fill="#62BFBE" d="M657.656,1061.52c0,1.625-1.32,2.943-2.945,2.943H251.334c-1.625,0-2.945-1.318-2.945-2.943v-54.054
	c0-1.623,1.32-2.943,2.945-2.943h403.377c1.625,0,2.945,1.32,2.945,2.943V1061.52z"/>
<path fill="#FFFFFF" d="M170.047,318.893c-5.979-2.99-14.953-5.981-20.934-5.981c-3.532,0-17.462,14.569-30.752,30.203l-5.044-4.642
	c1.839-3.113,2.899-6.736,2.899-10.61c0-11.538-9.392-20.929-20.936-20.929c-11.542,0-20.932,9.391-20.932,20.929
	c0,11.543,9.39,20.935,20.932,20.935c2.688,0,5.259-0.513,7.624-1.438c1.812,2.367,3.763,4.862,5.819,7.418
	c-2.057,2.563-4.012,5.057-5.819,7.424c-2.365-0.928-4.937-1.438-7.624-1.438c-11.542,0-20.932,9.391-20.932,20.931
	c0,11.544,9.39,20.936,20.932,20.936c11.544,0,20.936-9.392,20.936-20.936c0-3.87-1.061-7.495-2.899-10.607l5.044-4.64
	l12.676-11.667L170.047,318.893z M95.281,336.836c-4.943,0-8.969-4.022-8.969-8.974c0-4.944,4.025-8.97,8.969-8.97
	c4.95,0,8.973,4.025,8.973,8.97C104.254,332.813,100.231,336.836,95.281,336.836 M95.281,390.668c-4.943,0-8.969-4.024-8.969-8.976
	c0-4.947,4.025-8.97,8.969-8.97c4.95,0,8.973,4.022,8.973,8.97C104.254,386.644,100.231,390.668,95.281,390.668 M117.711,359.264
	c-2.476,0-4.482-2.008-4.482-4.485c0-2.476,2.007-4.484,4.482-4.484c2.477,0,4.487,2.009,4.487,4.484
	C122.198,357.256,120.188,359.264,117.711,359.264"/>
<path fill="#FFFFFF" d="M122.264,370.984c12.01,13.803,23.668,25.664,26.85,25.664c5.979,0,14.955-2.994,20.934-5.98l-34.592-31.827
	L122.264,370.984z"/>
<path fill="#FFFFFF" d="M169.779,537.848c-5.805,11.608-36.217,51.571-51.957,61.016c-0.479,0.285-1.01,0.423-1.537,0.423
	c-0.773,0-1.54-0.296-2.113-0.876l-8.969-8.965c-0.578-0.58-0.877-1.344-0.877-2.116c0-0.528,0.138-1.059,0.426-1.536
	c9.445-15.743,49.406-46.152,61.016-51.955c0.426-0.214,0.881-0.318,1.338-0.318c0.774,0,1.539,0.303,2.114,0.877
	c0.567,0.564,0.869,1.326,0.875,2.093C170.098,536.949,169.995,537.416,169.779,537.848 M74.432,629.184
	c5.979-11.959,35.87,0,35.87-26.904l-8.967-8.971C77.42,593.309,74.432,617.225,74.432,629.184"/>
<path fill="#FFFFFF" d="M167.258,106.878l-29.215-29.211c-0.57-0.567-1.318-0.854-2.062-0.854c-0.75,0-1.498,0.287-2.067,0.854
	c-3.647,3.647-4.242,9.204-1.792,13.476l-16.988,16.993c-3.101-1.538-7.846-2.566-12.408-2.566c-3.832,0-9.135,0.733-12.629,4.229
	c-0.567,0.57-0.855,1.321-0.855,2.065c0,0.748,0.288,1.498,0.855,2.064l16.121,16.124l-28.66,34.393l-2.92,5.844l5.84-2.919
	l34.394-28.665l16.122,16.121c0.57,0.571,1.314,0.856,2.066,0.856c0.744,0,1.494-0.285,2.065-0.856
	c3.494-3.494,4.226-8.795,4.226-12.624c0-4.563-1.023-9.309-2.56-12.409l16.985-16.991c4.272,2.454,9.834,1.854,13.482-1.792
	c0.567-0.571,0.854-1.317,0.854-2.065C168.111,108.199,167.825,107.451,167.258,106.878"/>
<path fill="#FFFFFF" d="M75.15,779.422v-2.415c0-3.253,2.641-5.89,5.893-5.89h82.439c3.253,0,5.893,2.637,5.893,5.89v2.415
	l-47.11,29.445L75.15,779.422z M123.826,814.835c-0.479,0.299-1.023,0.449-1.562,0.449c-0.541,0-1.085-0.15-1.565-0.449
	L75.15,786.367v49.527c0,3.252,2.641,5.887,5.893,5.887h82.439c3.253,0,5.893-2.635,5.893-5.887v-49.527L123.826,814.835z"/>
<path fill="#FFFFFF" d="M165.029,995.001v79.638c0,1.835-1.49,3.32-3.32,3.32H88.704c-1.831,0-3.315-1.485-3.315-3.32v-79.638
	c0-1.832,1.484-3.318,3.315-3.318h6.639v3.318c0,5.5,4.458,9.955,9.952,9.955h39.822c5.499,0,9.953-4.455,9.953-9.955v-3.318h6.639
	C163.539,991.683,165.029,993.169,165.029,995.001 M148.438,988.364v6.637c0,1.834-1.488,3.32-3.32,3.32h-39.822
	c-1.83,0-3.314-1.486-3.314-3.32v-6.637c0-1.522,1.035-2.85,2.511-3.217l10.798-2.702c-0.016-0.239-0.036-0.473-0.036-0.715
	c0-5.491,4.468-9.956,9.954-9.956c5.49,0,9.953,4.465,9.953,9.956c0,0.242-0.02,0.476-0.033,0.715l10.795,2.702
	C147.4,985.515,148.438,986.842,148.438,988.364 M131.846,981.73c0-3.668-2.972-6.639-6.639-6.639c-3.662,0-6.637,2.971-6.637,6.639
	c0,3.664,2.975,6.634,6.637,6.634C128.874,988.364,131.846,985.395,131.846,981.73"/>
<g opacity="0.7">
	<g>
		<defs>
			<rect id="SVGID_9_" y="475.433" width="1085.459" height="211.84"/>
		</defs>
		<clipPath id="SVGID_10_">
			<use xlink:href="#SVGID_9_"  overflow="visible"/>
		</clipPath>
		<rect y="475.428" clip-path="url(#SVGID_10_)" fill="#FFFFFF" width="1085.459" height="211.847"/>
	</g>
</g>
</svg>
