<?xml version="1.0" encoding="utf-8"?>
<!-- Generator: Adobe Illustrator 15.0.0, SVG Export Plug-In . SVG Version: 6.00 Build 0)  -->
<!DOCTYPE svg PUBLIC "-//W3C//DTD SVG 1.1//EN" "http://www.w3.org/Graphics/SVG/1.1/DTD/svg11.dtd">
<svg version="1.1" id="Layer_1" xmlns="http://www.w3.org/2000/svg" xmlns:xlink="http://www.w3.org/1999/xlink" x="0px" y="0px"
	 width="1917.953px" height="1076.256px" viewBox="0 0 1917.953 1076.256" enable-background="new 0 0 1917.953 1076.256"
	 xml:space="preserve">
<rect x="0.79" fill="#053F5F" width="1917.163" height="1076.131"/>
<g opacity="0.2">
	<g>
		<defs>
			<rect id="SVGID_1_" y="416.989" width="1076.13" height="210.022"/>
		</defs>
		<clipPath id="SVGID_2_">
			<use xlink:href="#SVGID_1_"  overflow="visible"/>
		</clipPath>
		<rect x="0.001" y="416.985" clip-path="url(#SVGID_2_)" fill="#FFFFFF" width="1076.131" height="210.026"/>
	</g>
</g>
<g opacity="0.2">
	<g>
		<defs>
			<rect id="SVGID_3_" y="641.607" width="1076.13" height="210.026"/>
		</defs>
		<clipPath id="SVGID_4_">
			<use xlink:href="#SVGID_3_"  overflow="visible"/>
		</clipPath>
		<rect x="0.001" y="641.607" clip-path="url(#SVGID_4_)" fill="#FFFFFF" width="1076.131" height="210.026"/>
	</g>
</g>
<path fill="#FFFFFF" d="M335.043,222.147c0,71.327-57.825,129.152-129.154,129.152c-71.329,0-129.155-57.825-129.155-129.152
	c0-71.331,57.826-129.156,129.155-129.156C277.218,92.991,335.043,150.816,335.043,222.147"/>
<path fill="#FFFFFF" d="M773.078,229.083c0,1.612-1.31,2.918-2.918,2.918H370.247c-1.611,0-2.92-1.306-2.92-2.918v-53.587
	c0-1.617,1.309-2.918,2.92-2.918H770.16c1.608,0,2.918,1.301,2.918,2.918V229.083z"/>
<path fill="#62BFBE" d="M837.856,548.791c0,1.614-1.308,2.917-2.919,2.917H249.174c-1.613,0-2.921-1.303-2.921-2.917v-53.584
	c0-1.615,1.308-2.924,2.921-2.924h585.763c1.611,0,2.919,1.309,2.919,2.924V548.791z"/>
<path fill="#62BFBE" d="M652.003,773.414c0,1.613-1.308,2.921-2.918,2.921H249.174c-1.613,0-2.921-1.308-2.921-2.921v-53.59
	c0-1.61,1.308-2.914,2.921-2.914h399.911c1.61,0,2.918,1.304,2.918,2.914V773.414z"/>
<path fill="#62BFBE" d="M652.003,998.041c0,1.609-1.308,2.917-2.918,2.917H249.174c-1.613,0-2.921-1.308-2.921-2.917v-53.59
	c0-1.615,1.308-2.919,2.921-2.919h399.911c1.61,0,2.918,1.304,2.918,2.919V998.041z"/>
<path fill="#C4BDB7" d="M592.294,297.624c0,1.611-1.308,2.919-2.918,2.919H345.632c-1.61,0-2.918-1.308-2.918-2.919v-33.155
	c0-1.609,1.308-2.919,2.918-2.919h243.744c1.61,0,2.918,1.31,2.918,2.919V297.624z"/>
<path fill="#FFFFFF" d="M168.585,711.041c-5.929-2.965-14.825-5.931-20.754-5.931c-3.501,0-17.311,14.443-30.487,29.943l-5-4.602
	c1.823-3.086,2.874-6.68,2.874-10.519c0-11.439-9.312-20.75-20.756-20.75c-11.443,0-20.752,9.311-20.752,20.75
	c0,11.443,9.309,20.755,20.752,20.755c2.664,0,5.214-0.509,7.56-1.428c1.794,2.348,3.729,4.82,5.768,7.355
	c-2.04,2.541-3.977,5.014-5.768,7.359c-2.346-0.919-4.896-1.427-7.56-1.427c-11.443,0-20.752,9.311-20.752,20.751
	c0,11.445,9.309,20.756,20.752,20.756c11.444,0,20.756-9.311,20.756-20.756c0-3.836-1.051-7.43-2.874-10.516l5-4.601l12.567-11.565
	L168.585,711.041z M94.462,728.83c-4.903,0-8.893-3.989-8.893-8.896c0-4.902,3.989-8.893,8.893-8.893
	c4.906,0,8.896,3.99,8.896,8.893C103.358,724.841,99.368,728.83,94.462,728.83 M94.462,782.199c-4.903,0-8.893-3.989-8.893-8.899
	c0-4.904,3.989-8.893,8.893-8.893c4.906,0,8.896,3.988,8.896,8.893C103.358,778.21,99.368,782.199,94.462,782.199 M116.697,751.065
	c-2.452,0-4.442-1.99-4.442-4.447c0-2.455,1.99-4.446,4.442-4.446c2.457,0,4.452,1.991,4.452,4.446
	C121.149,749.075,119.154,751.065,116.697,751.065"/>
<path fill="#FFFFFF" d="M121.214,762.685c11.904,13.684,23.462,25.443,26.617,25.443c5.929,0,14.825-2.968,20.754-5.929
	l-34.293-31.554L121.214,762.685z"/>
<path fill="#FFFFFF" d="M168.319,928.114c-5.754,11.508-35.904,51.128-51.51,60.49c-0.473,0.284-0.999,0.42-1.522,0.42
	c-0.767,0-1.528-0.294-2.097-0.868l-8.892-8.889c-0.571-0.574-0.868-1.332-0.868-2.097c0-0.524,0.136-1.051,0.422-1.523
	c9.364-15.607,48.982-45.756,60.491-51.508c0.422-0.212,0.873-0.316,1.325-0.316c0.768,0,1.527,0.301,2.098,0.869
	c0.562,0.561,0.861,1.314,0.866,2.075C168.636,927.223,168.534,927.686,168.319,928.114 M73.791,1018.666
	c5.926-11.857,35.563,0,35.563-26.674l-8.89-8.895C76.754,983.098,73.791,1006.809,73.791,1018.666"/>
<path fill="#FFFFFF" d="M165.82,500.849l-28.963-28.961c-0.565-0.562-1.308-0.848-2.046-0.848c-0.743,0-1.486,0.285-2.048,0.848
	c-3.617,3.616-4.206,9.125-1.778,13.359l-16.843,16.848c-3.072-1.524-7.778-2.544-12.301-2.544c-3.798,0-9.055,0.728-12.52,4.192
	c-0.563,0.564-0.848,1.31-0.848,2.047c0,0.742,0.285,1.485,0.848,2.048l15.983,15.985L76.89,557.919l-2.896,5.794l5.79-2.894
	l34.099-28.419l15.983,15.982c0.565,0.566,1.304,0.85,2.049,0.85c0.737,0,1.479-0.283,2.048-0.85
	c3.463-3.464,4.188-8.72,4.188-12.515c0-4.524-1.016-9.23-2.538-12.303l16.84-16.846c4.236,2.434,9.749,1.839,13.366-1.775
	c0.562-0.567,0.846-1.309,0.846-2.049C166.667,502.158,166.382,501.416,165.82,500.849"/>
<path fill="#ABAEAE" d="M273.866,195.188c0.203,0.717-12.776-8.567-13.598-9.388c-1.963-1.961-3.949-4.481-5.65-7.165
	c-1.963-23.959-22.079-42.856-46.534-42.856c-25.752,0-46.704,20.95-46.704,46.702v23.353c0,25.752,20.952,46.707,46.704,46.707
	c14.037,0,26.629-6.231,35.197-16.063c-7.935-1.383-10.385-5.797-10.385-16.291c6.844,5.184,12.083,6.824,16.948,6.51
	c2.648-5.287,4.333-11.135,4.799-17.322C263.823,207.504,276.008,202.775,273.866,195.188"/>
<path fill="#ABAEAE" d="M232.435,264.419c-7.172-4.086-5.317-13.089-8.981-19.027c-2.81-4.557-9.133-5.659-14.104-5.966
	c-6.86-0.432-15.863-0.341-22.245,1.739c-4.476,1.461-6.277,7.446-9.106,10.805c-3.932,4.665-28.465,21.249-35.965,26.215
	c-7.319,4.84-24.203,13.055-19.223,20.31c17.804,25.909,58.071,39.531,80.007,39.531c34.974,0,96.399-16.056,80.867-43.622
	C277.532,283.493,238.263,267.742,232.435,264.419"/>
<g opacity="0.7">
	<g>
		<defs>
			<rect id="SVGID_5_" y="866.229" width="1076.13" height="210.026"/>
		</defs>
		<clipPath id="SVGID_6_">
			<use xlink:href="#SVGID_5_"  overflow="visible"/>
		</clipPath>
		<rect x="0.001" y="866.229" clip-path="url(#SVGID_6_)" fill="#FFFFFF" width="1076.131" height="210.026"/>
	</g>
</g>
<rect x="1109.807" y="31.436" fill="#FFFFFF" width="782.969" height="1019.062"/>
<path fill="#ABAEAE" d="M1572.791,229.083c0,1.612-1.311,2.918-2.92,2.918h-399.912c-1.609,0-2.92-1.306-2.92-2.918v-53.587
	c0-1.617,1.311-2.918,2.92-2.918h399.912c1.609,0,2.92,1.301,2.92,2.918V229.083z"/>
<path fill="#ABAEAE" d="M1707.435,339.929c0,1.61-2.834,2.918-6.318,2.918h-527.762c-3.486,0-6.315-1.308-6.315-2.918v-33.156
	c0-1.61,2.829-2.918,6.315-2.918h527.762c3.484,0,6.318,1.308,6.318,2.918V339.929z"/>
<path fill="#ABAEAE" d="M1748.058,413.194c0,1.611-3.049,2.918-6.796,2.918h-567.432c-3.748,0-6.792-1.307-6.792-2.918v-33.155
	c0-1.61,3.044-2.919,6.792-2.919h567.432c3.747,0,6.796,1.309,6.796,2.919V413.194z"/>
<path fill="#ABAEAE" d="M1666.302,486.46c0,1.611-2.619,2.919-5.837,2.919h-487.592c-3.22,0-5.835-1.308-5.835-2.919v-33.155
	c0-1.61,2.615-2.918,5.835-2.918h487.592c3.218,0,5.837,1.308,5.837,2.918V486.46z"/>
<path fill="#ABAEAE" d="M1748.058,559.727c0,1.611-3.049,2.918-6.796,2.918h-567.432c-3.748,0-6.792-1.307-6.792-2.918V526.57
	c0-1.609,3.044-2.918,6.792-2.918h567.432c3.747,0,6.796,1.309,6.796,2.918V559.727z"/>
<path fill="#ABAEAE" d="M1572.791,713.105c0,1.612-1.311,2.918-2.92,2.918h-399.912c-1.609,0-2.92-1.306-2.92-2.918v-53.587
	c0-1.616,1.311-2.917,2.92-2.917h399.912c1.609,0,2.92,1.301,2.92,2.917V713.105z"/>
<path fill="#ABAEAE" d="M1707.435,823.95c0,1.611-2.834,2.919-6.318,2.919h-527.762c-3.486,0-6.315-1.308-6.315-2.919v-33.154
	c0-1.61,2.829-2.919,6.315-2.919h527.762c3.484,0,6.318,1.309,6.318,2.919V823.95z"/>
<path fill="#ABAEAE" d="M1748.058,897.217c0,1.611-3.049,2.918-6.796,2.918h-567.432c-3.748,0-6.792-1.307-6.792-2.918v-33.155
	c0-1.61,3.044-2.919,6.792-2.919h567.432c3.747,0,6.796,1.309,6.796,2.919V897.217z"/>
<path fill="#ABAEAE" d="M1666.302,970.482c0,1.611-2.619,2.919-5.837,2.919h-487.592c-3.22,0-5.835-1.308-5.835-2.919v-33.155
	c0-1.609,2.615-2.918,5.835-2.918h487.592c3.218,0,5.837,1.309,5.837,2.918V970.482z"/>
</svg>
