<?xml version="1.0" encoding="utf-8"?>
<!-- Generator: Adobe Illustrator 18.1.0, SVG Export Plug-In . SVG Version: 6.00 Build 0)  -->
<!DOCTYPE svg PUBLIC "-//W3C//DTD SVG 1.1//EN" "http://www.w3.org/Graphics/SVG/1.1/DTD/svg11.dtd">
<svg version="1.1" id="Layer_1" xmlns="http://www.w3.org/2000/svg" xmlns:xlink="http://www.w3.org/1999/xlink" x="0px" y="0px"
	 viewBox="0 0 1671.5 206.2" enable-background="new 0 0 1671.5 206.2" xml:space="preserve">
<rect y="0" fill="#00ABB9" width="1671.5" height="206.2"/>
<path fill="#FFFFFF" d="M1554.8,125.7c-2.9-0.5-2.9-8.3-2.9-8.3s8.4-8.3,10.2-19.5c4.9,0,8-11.9,3-16.1c0.2-4.4,6.3-34.6-24.7-34.6
	s-24.9,30.2-24.7,34.6c-4.9,4.2-1.9,16.1,3,16.1c1.8,11.2,10.2,19.5,10.2,19.5s-0.1,7.9-2.9,8.3c-9.2,1.5-43.6,16.6-43.6,33.3h57.9
	h57.9C1598.4,142.3,1564,127.2,1554.8,125.7z"/>
<text transform="matrix(1 0 0 1 54.537 142.3497)"><tspan x="0" y="0" fill="#FFFFFF" font-family="'BrandonGrotesque-Bold'" font-size="104.3518">Drink up</tspan><tspan x="488" y="0" fill="#FFFFFF" font-family="'BrandonGrotesque-Regular'" font-size="104.3518"> Hanne!</tspan></text>
</svg>
