<?xml version="1.0" encoding="utf-8"?>
<!-- Generator: Adobe Illustrator 16.0.0, SVG Export Plug-In . SVG Version: 6.00 Build 0)  -->
<!DOCTYPE svg PUBLIC "-//W3C//DTD SVG 1.0//EN" "http://www.w3.org/TR/2001/REC-SVG-20010904/DTD/svg10.dtd">
<svg version="1.0" id="Ebene_1" xmlns="http://www.w3.org/2000/svg" xmlns:xlink="http://www.w3.org/1999/xlink" x="0px" y="0px"
	 width="28.868px" height="38.417px" viewBox="0 0 28.868 38.417" enable-background="new 0 0 28.868 38.417" xml:space="preserve">
<g>
	<path fill="#787777" d="M4.734,8.438c2.538-2.225,5.864-3.573,9.505-3.573c3.731,0,7.134,1.417,9.694,3.743l-9.538,9.49
		L4.734,8.438z"/>
	<path fill="#787777" d="M25.156,9.862c2.188,2.528,3.508,5.823,3.508,9.428c0,7.967-6.459,14.427-14.425,14.427
		c-3.604,0-6.899-1.323-9.428-3.509L25.156,9.862z"/>
	<path fill="#787777" d="M12.495,20.085c0.433-0.434,0.433-1.137,0-1.569c-0.434-0.433-1.137-0.433-1.57,0l-7.886,7.885
		c-0.433,0.435-0.433,1.137,0.001,1.569c0.433,0.434,1.136,0.434,1.569,0L12.495,20.085z"/>
	<path fill="#787777" d="M10.004,17.594c0.433-0.435,0.433-1.136,0-1.569c-0.434-0.434-1.137-0.434-1.57,0l-7.262,7.262
		c-0.434,0.435-0.434,1.136,0,1.569c0.433,0.434,1.136,0.434,1.569,0L10.004,17.594z"/>
	<path fill="#787777" d="M7.513,15.102c0.433-0.433,0.433-1.135,0-1.568c-0.434-0.435-1.138-0.435-1.57,0L0.34,19.135
		c-0.433,0.434-0.433,1.137,0.001,1.57c0.433,0.433,1.136,0.433,1.569,0L7.513,15.102z"/>
	<path fill="#787777" d="M5.021,12.61c0.434-0.432,0.434-1.135,0-1.568c-0.433-0.433-1.137-0.433-1.569,0l-2.604,2.604
		c-0.433,0.434-0.433,1.137,0.001,1.569c0.433,0.433,1.137,0.433,1.569,0L5.021,12.61z"/>
</g>
</svg>
