<?xml version="1.0" encoding="utf-8"?>
<!-- Generator: Adobe Illustrator 16.0.0, SVG Export Plug-In . SVG Version: 6.00 Build 0)  -->
<!DOCTYPE svg PUBLIC "-//W3C//DTD SVG 1.0//EN" "http://www.w3.org/TR/2001/REC-SVG-20010904/DTD/svg10.dtd">
<svg version="1.0" id="Ebene_1" xmlns="http://www.w3.org/2000/svg" xmlns:xlink="http://www.w3.org/1999/xlink" x="0px" y="0px"
	 width="8.503px" height="8.512px" viewBox="0 0 8.503 8.512" enable-background="new 0 0 8.503 8.512" xml:space="preserve">
<path fill="#91BF8F" d="M8.5,4.25c0,2.348-1.902,4.25-4.25,4.25S0,6.598,0,4.25S1.902,0,4.25,0S8.5,1.902,8.5,4.25z M4.14,1.418
	c-0.414,0-0.75,0.336-0.75,0.75s0.336,0.75,0.75,0.75s0.75-0.336,0.75-0.75S4.554,1.418,4.14,1.418z M3.39,6.418
	c0,0.414,0.336,0.75,0.75,0.75s0.75-0.336,0.75-0.75V4.314c0-0.414-0.336-0.75-0.75-0.75S3.39,3.9,3.39,4.314V6.418z"/>
</svg>
