<?xml version="1.0" encoding="utf-8"?>
<!-- Generator: Adobe Illustrator 16.0.0, SVG Export Plug-In . SVG Version: 6.00 Build 0)  -->
<!DOCTYPE svg PUBLIC "-//W3C//DTD SVG 1.0//EN" "http://www.w3.org/TR/2001/REC-SVG-20010904/DTD/svg10.dtd">
<svg version="1.0" xmlns="http://www.w3.org/2000/svg" xmlns:xlink="http://www.w3.org/1999/xlink" x="0px" y="0px"
	 width="121.029px" height="120.25px" viewBox="0 -4.125 121.029 120.25" enable-background="new 0 -4.125 121.029 120.25"
	 xml:space="preserve">
<g id="background">
	<circle fill="#F2F2F2" cx="60.446" cy="56.125" r="60"/>
</g>
<g id="meat_1_">
	<g id="meat" opacity="0.7">
		<path fill="#E35F25" d="M14.154,30.163c-0.866-0.526-1.445-1.478-1.445-2.565c0-0.602,0.177-1.163,0.482-1.632
			c9.968-15.748,27.57-26.251,47.586-26.25c20.014,0,37.58,10.456,47.551,26.2c0.324,0.479,0.514,1.056,0.514,1.678
			c0,1.1-0.591,2.061-1.473,2.584L60.778,54.541L14.154,30.163z"/>
	</g>
</g>
<g id="meat-icons">
	<g id="meat_icons">
		<g>
			<path fill="#FFFFFF" d="M74.404,12.435c0-4.626-2.58-5.259-3.312-5.259c-0.73,0-3.311,0.633-3.311,5.259H74.404z"/>
			<path fill="#FFFFFF" d="M74.575,13.133c0,1.218-0.682,3.312-3.507,3.312c-2.824,0-3.507-2.095-3.507-3.312H74.575z"/>
			<rect x="70.852" y="16.203" fill="#FFFFFF" width="0.426" height="3.168"/>
			<rect x="67.632" y="19.219" fill="#FFFFFF" width="6.746" height="0.607"/>
		</g>
		<g>
			<polygon fill="#FFFFFF" points="63.504,29.22 63.917,17.366 64.651,17.366 64.24,29.933 55.969,29.933 55.556,17.366 
				56.412,17.366 56.824,29.22 			"/>
			<polygon fill="#FFFFFF" points="57.07,20.71 57.344,28.569 63.01,28.538 63.205,20.753 			"/>
		</g>
		<g>
			<polygon fill="#FFFFFF" points="81.936,20.819 71.962,24.306 86.046,22.326 			"/>
			<path fill="#FFFFFF" d="M86.367,22.982l0.172,10.367l-13.822,1.899l-0.862-10.367L86.367,22.982z M75.805,27.668
				c0.34-0.369,0.371-0.891,0.071-1.166c-0.299-0.271-0.815-0.194-1.153,0.175c-0.338,0.368-0.371,0.891-0.072,1.166
				C74.951,28.115,75.468,28.037,75.805,27.668z M80.35,29.832c0.582-0.33,0.862-0.932,0.627-1.348
				c-0.233-0.416-0.896-0.486-1.478-0.156s-0.862,0.933-0.629,1.349C79.108,30.092,79.768,30.162,80.35,29.832z M84.897,26.697
				c0-0.525-0.426-0.951-0.951-0.951c-0.522,0-0.948,0.426-0.948,0.951c0,0.525,0.426,0.949,0.948,0.949
				C84.471,27.646,84.897,27.223,84.897,26.697z M76.071,33.185c0.275-0.267,0.312-0.674,0.082-0.916
				c-0.229-0.242-0.641-0.228-0.916,0.037c-0.276,0.264-0.313,0.672-0.084,0.914C75.382,33.463,75.794,33.447,76.071,33.185z"/>
		</g>
		<g>
			<path fill="#FFFFFF" d="M49.071,27.932c-1.45-3.182-4.994-3.517-6.502-3.517c-1.507,0-5.05,0.335-6.502,3.517H49.071z"/>
			<path fill="#FFFFFF" d="M49.182,29.466c0.246,0,0.444-0.199,0.444-0.446c0-0.246-0.198-0.446-0.444-0.446H35.958
				c-0.247,0-0.445,0.2-0.445,0.446c0,0.247,0.198,0.446,0.445,0.446H49.182z"/>
			<path fill="#FFFFFF" d="M49.085,32.19c0.562,0,1.017-0.454,1.017-1.017c0-0.56-0.455-1.015-1.017-1.015h-13.03
				c-0.562,0-1.016,0.455-1.016,1.015c0,0.562,0.454,1.017,1.016,1.017H49.085z"/>
			<path fill="#FFFFFF" d="M49.126,32.838c-0.323,0.854-1.39,1.664-2.474,2.089h-8.269c-1.084-0.425-2.146-1.235-2.471-2.089H49.126
				z"/>
		</g>
		<g>
			<path fill="#FFFFFF" d="M68.323,40.861c-0.09,2.066-4.812,5.038-9.03,3.455c-4.219-1.582-5.608-5.222-4.772-6.894
				c0.835-1.67,2.886-3.132,5.125-3.039c2.153,0.088,2.462,3.911,4.221,4.352c1.759,0.438,2.611,0.763,3.314,0.896
				C67.882,39.762,68.346,40.289,68.323,40.861z"/>
			<path fill="#FFFFFF" d="M68.236,41.618c-0.088,2.065-4.688,5.022-8.906,3.44c-4.22-1.582-5.849-4.57-5.014-6.24
				c-0.791,2.109-0.033,6.565,4.757,8.191c4.268,1.448,9.011-1.494,9.099-3.562l0.044-1.625"/>
		</g>
		<g>
			<path fill="#FFFFFF" d="M48.944,10.041c-1.347-1.293-4.901,0.687-5.762,2.311c-0.859,1.624-3.107,5.103-4.731,5.771
				c0,0-0.13,1.972-0.13,2.354c2.866,0.095,7.671-1.138,9.581-3.048C49.813,15.516,50.378,11.418,48.944,10.041z"/>
			<path fill="#FFFFFF" d="M37.962,18.557c-0.906,0.134-1.271,0.285-2.188,0.201c-0.917-0.085-1.017-1.054-1.5-1.24
				c-0.279-0.107-0.833,0.157-0.833,0.574c0,0.416,0.458,0.659,0.458,0.909s-0.437,0.422-0.437,0.422s-0.75,0.109-0.594,0.688
				c0.096,0.354,1.108,0.484,1.875,0.141c0.685-0.307,2.719,0.056,3.219-0.111V18.557z"/>
		</g>
	</g>
</g>
<g id="meat-info">
	<g id="meat_info">
		<path fill="#CCCCCC" d="M119.558,15.061c0,2.348-1.901,4.25-4.25,4.25c-2.348,0-4.25-1.902-4.25-4.25s1.902-4.25,4.25-4.25
			C117.657,10.811,119.558,12.714,119.558,15.061z M115.199,12.229c-0.414,0-0.75,0.336-0.75,0.75s0.336,0.75,0.75,0.75
			c0.413,0,0.75-0.336,0.75-0.75S115.612,12.229,115.199,12.229z M114.449,17.229c0,0.414,0.336,0.75,0.75,0.75
			c0.413,0,0.75-0.336,0.75-0.75v-2.104c0-0.414-0.337-0.75-0.75-0.75c-0.414,0-0.75,0.336-0.75,0.75V17.229z"/>
	</g>
</g>
<g id="fish_1_">
	<g id="fish">
		<path fill="#6EB5A1" d="M63.809,56.492l45.03-23.181c0.388-0.182,0.82-0.284,1.277-0.284c1.172,0,2.186,0.671,2.68,1.65
			c2.604,6.539,4.23,13.945,4.23,21.289c0,14.67-5.623,28.019-14.82,38.032c-0.549,0.627-1.355,1.023-2.256,1.023
			c-0.918,0-1.738-0.411-2.289-1.061L63.809,56.492z"/>
	</g>
</g>
<g id="fish-icons">
	<g id="fish_icons">
		<g>
			<path fill="#FFFFFF" d="M91.467,65.877c-0.74,0.217-4.858,3.928-4.954,4.787c0,0,6.271,4.803,8.21,3.057
				C96.66,71.975,92.235,66.625,91.467,65.877z"/>
			<path fill="#FFFFFF" d="M92.528,65.555c2.25,0.25,6.584,2.582,6.584,3.75c0,1.166-1.501,2.832-2.334,2.25
				C95.945,70.971,92.528,65.555,92.528,65.555z"/>
			<path fill="#FFFFFF" d="M99.852,70.405c0.967,2.387,0.5,5.666-0.5,5.5c-1-0.168-1.598-2.691-1.765-3.191
				C97.423,72.213,99.852,70.405,99.852,70.405z"/>
			<path fill="#FFFFFF" d="M86.232,71.415c0.223,2.252,2.502,6.615,3.669,6.629c1.166,0.016,2.852-1.465,2.277-2.305
				C91.606,74.897,86.232,71.415,86.232,71.415z"/>
			<path fill="#FFFFFF" d="M90.918,78.792c2.376,0.996,5.661,0.57,5.506-0.434c-0.153-1.002-2.671-1.629-3.169-1.803
				C92.757,76.385,90.918,78.792,90.918,78.792z"/>
		</g>
		<g>
			<path fill="#FFFFFF" d="M87.71,51.187c3.677-0.83,10.137,1.422,11.735,7.29c-1.127,2.135-7.408,5.395-13.987,0.594
				C88.007,57.293,88.481,54.15,87.71,51.187z"/>
			<path fill="#FFFFFF" d="M90.606,52.398l1.047-1.062c1.312-0.594,4.609-0.266,6.673,1.298c-1.496,0.567-1.347,0.626-3.5,1.221
				L90.606,52.398z"/>
			<path fill="#FFFFFF" d="M99.571,58.434c0.281-2.126,2.245-4.165,5.921-3.573C105.551,57.116,102.727,59.34,99.571,58.434z"/>
			<path fill="#FFFFFF" d="M99.481,58.54c2.1,0.438,3.988,2.547,3.127,6.168C100.358,64.6,98.345,61.622,99.481,58.54z"/>
			<path fill="#FFFFFF" d="M81.724,53.676c0,0,2.548-1.777,5.155-2.37c1.126,4.09-0.79,6.501-1.837,7.231
				C82.731,57.174,81.724,53.676,81.724,53.676z M85.919,53.517c0-0.416-0.336-0.752-0.751-0.752s-0.751,0.336-0.751,0.752
				c0,0.414,0.336,0.75,0.751,0.75S85.919,53.932,85.919,53.517z"/>
		</g>
	</g>
</g>
<g id="fish-info">
	<g id="fish_info">
		<path fill="#CCCCCC" d="M119.558,99.848c0,2.35-1.901,4.25-4.25,4.25c-2.348,0-4.25-1.9-4.25-4.25c0-2.348,1.902-4.25,4.25-4.25
			C117.657,95.598,119.558,97.502,119.558,99.848z M115.199,97.016c-0.414,0-0.75,0.336-0.75,0.75s0.336,0.75,0.75,0.75
			c0.413,0,0.75-0.336,0.75-0.75S115.612,97.016,115.199,97.016z M114.449,102.016c0,0.414,0.336,0.75,0.75,0.75
			c0.413,0,0.75-0.336,0.75-0.75v-2.104c0-0.414-0.337-0.75-0.75-0.75c-0.414,0-0.75,0.336-0.75,0.75V102.016z"/>
	</g>
</g>
<g id="vegan_1_">
	<g id="vegan">
		<path fill="#2F4F30" d="M60.778,58.741l0.117,0.129l34.233,37.576c0.479,0.531,0.771,1.234,0.771,2.007
			c0,0.987-0.477,1.862-1.212,2.409c-9.426,7.132-21.178,11.354-33.91,11.355c-31.064,0-56.25-25.184-56.25-56.251
			c-0.001-7.355,1.412-14.381,3.979-20.821c0.428-1.134,1.524-1.941,2.808-1.941c0.513,0,0.995,0.129,1.417,0.355L60.778,58.741z"/>
	</g>
</g>
<g id="vegan-icons">
	<g id="vegan_icons">
		<g>
			<path fill="#FFFFFF" d="M59.128,87.991c1.643,1.115-8.633,7.867-12.965,9.445c1.375-4.602,10.513-13.189,11.447-11.645
				c-0.592,0.143-1.005,0.457-0.903,0.861c0.102,0.402,0.483,1.857,1.642,1.826C58.778,88.469,59.128,87.991,59.128,87.991z"/>
			<path fill="#FFFFFF" d="M59.026,87.688c-0.019-0.031,3.229-0.818,5.154-1.844c0,0-1.394-0.143-4.354,0.439
				c0.688-0.424,2.291-1.604,2.659-2.504c0,0-0.607,0.793-2.513,1.322l1.19-3.65c0,0-1.844,3.652-3.504,4.691
				c0,0-0.301,0.084-0.502,0.336c-0.202,0.254,0.577,1.434,0.932,1.482C58.444,88.014,58.58,88.067,59.026,87.688z"/>
		</g>
		<g>
			<path fill="#FFFFFF" d="M35.611,68.415c4.625,1.25,6.094-3.461,6.094-5.646c0-3.5-4.183-4.219-6.313-3.346
				c-2.134-0.873-6.153-0.154-6.153,3.346C29.236,64.954,30.549,69.79,35.611,68.415z"/>
			<path fill="#FFFFFF" d="M35.41,58.786c0.042-1.125,1.043-3.25-1-4.792"/>
			<path fill="#FFFFFF" d="M36.244,58.182c0.844-1.404,1.78-3.845,5.78-3.22C41.274,58.463,38.712,58.776,36.244,58.182z"/>
		</g>
		<g>
			<path fill="#FFFFFF" d="M51.833,68.012c0.62-0.93,2.296-0.459,3.382,0.062c1.188,0.57,1.111,4.51,0.998,6.084
				c-0.103,1.418-1.098,5.77-3.334,5.77c-1.883,0-1.832-0.98-2.465-0.98c-0.631,0-0.58,0.98-2.464,0.98
				c-2.237,0-3.241-3.979-3.334-5.396c-0.108-1.652-0.538-6.078,0.996-6.455c1.216-0.297,2.414-0.43,3.204,0.359
				c-0.767,0.547-1.562,1.404-1.327,1.891c0.21,0.438,2.125,0.734,3.062,0.594c0.938-0.139,3.118-1.352,3.109-1.766
				C53.644,68.45,51.738,68.153,51.833,68.012z"/>
			<path fill="#FFFFFF" d="M53.055,63.098c0.379,0.051-0.898-0.688-1.693-0.266c-0.793,0.424-1.643,3.006-1.825,5.438
				c-0.039,0.527-1.154,1.27-1.283,1.652c-0.119,0.357,1.351,0.465,2.304,0.357c0.951-0.105,1.971-0.729,2.13-1.15
				C52.846,68.706,51.1,68.6,51.1,68.6C50.993,67.333,51.045,62.834,53.055,63.098z"/>
		</g>
		<g>
			<g>
				<path fill="#FFFFFF" d="M39.974,86.493c1.071-1.447,0.327-4.215-0.292-4.746C38.351,82.491,38.958,85.327,39.974,86.493z"/>
				<path fill="#FFFFFF" d="M37.811,84.083c1.071-1.447,0.327-4.217-0.293-4.748C36.188,80.079,36.794,82.915,37.811,84.083z"/>
				<path fill="#FFFFFF" d="M35.647,81.883c1.072-1.449,0.328-4.217-0.292-4.746C34.024,77.881,34.63,80.717,35.647,81.883z"/>
				<path fill="#FFFFFF" d="M33.554,79.719c1.071-1.449,0.326-4.215-0.292-4.746C31.931,75.717,32.538,78.553,33.554,79.719z"/>
				<path fill="#FFFFFF" d="M39.876,86.592c-1.438,1.086-4.212,0.365-4.749-0.25C35.859,85.006,38.701,85.586,39.876,86.592z"/>
				<path fill="#FFFFFF" d="M37.445,84.45c-1.438,1.086-4.212,0.365-4.749-0.248C33.428,82.864,36.27,83.444,37.445,84.45z"/>
				<path fill="#FFFFFF" d="M35.227,82.307c-1.438,1.084-4.213,0.365-4.75-0.25C31.21,80.719,34.052,81.299,35.227,82.307z"/>
				<path fill="#FFFFFF" d="M33.045,80.233c-1.438,1.086-4.212,0.365-4.749-0.25C29.028,78.645,31.871,79.227,33.045,80.233z"/>
			</g>
			
				<rect x="26.656" y="82.135" transform="matrix(-0.7045 -0.7097 0.7097 -0.7045 2.4347 165.6592)" fill="#FFFFFF" width="18.098" height="0.376"/>
			
				<rect x="30.975" y="74.765" transform="matrix(0.9029 -0.4299 0.4299 0.9029 -29.9963 20.8308)" fill="#FFFFFF" width="0.25" height="4.062"/>
			
				<rect x="30.035" y="75.639" transform="matrix(-0.4657 0.8849 -0.8849 -0.4657 112.941 87.1566)" fill="#FFFFFF" width="0.252" height="4.065"/>
		</g>
	</g>
</g>
<g id="vegan-info">
	<g id="vegan_info">
		<path fill="#CCCCCC" d="M10.114,99.848c0,2.35-1.901,4.25-4.25,4.25c-2.348,0-4.25-1.9-4.25-4.25c0-2.348,1.902-4.25,4.25-4.25
			C8.213,95.598,10.114,97.502,10.114,99.848z M5.754,97.016c-0.414,0-0.75,0.336-0.75,0.75s0.336,0.75,0.75,0.75
			s0.75-0.336,0.75-0.75S6.168,97.016,5.754,97.016z M5.004,102.016c0,0.414,0.336,0.75,0.75,0.75s0.75-0.336,0.75-0.75v-2.104
			c0-0.414-0.336-0.75-0.75-0.75s-0.75,0.336-0.75,0.75V102.016z"/>
	</g>
</g>
</svg>
