<?xml version="1.0" encoding="utf-8"?>
<!-- Generator: Adobe Illustrator 16.0.0, SVG Export Plug-In . SVG Version: 6.00 Build 0)  -->
<!DOCTYPE svg PUBLIC "-//W3C//DTD SVG 1.0//EN" "http://www.w3.org/TR/2001/REC-SVG-20010904/DTD/svg10.dtd">
<svg version="1.0" id="Ebene_1" xmlns="http://www.w3.org/2000/svg" xmlns:xlink="http://www.w3.org/1999/xlink" x="0px" y="0px"
	 width="28.868px" height="38.417px" viewBox="0 0 28.868 38.417" enable-background="new 0 0 28.868 38.417" xml:space="preserve">
<path fill="#787777" d="M12.188,8.061c0-1.31,1.062-2.371,2.371-2.371s2.372,1.062,2.372,2.371l-0.066,9.317h9.383
	c1.311,0,2.371,1.062,2.371,2.371c0,1.311-1.061,2.371-2.371,2.371h-9.383l0.066,9.317c0,1.31-1.062,2.371-2.372,2.371
	s-2.371-1.062-2.371-2.371l-0.011-9.317H2.871c-1.31,0-2.372-1.061-2.372-2.371c0-1.31,1.062-2.371,2.372-2.371h9.306L12.188,8.061z
	"/>
</svg>
