<?xml version="1.0" encoding="utf-8"?>
<!-- Generator: Adobe Illustrator 16.0.0, SVG Export Plug-In . SVG Version: 6.00 Build 0)  -->
<!DOCTYPE svg PUBLIC "-//W3C//DTD SVG 1.0//EN" "http://www.w3.org/TR/2001/REC-SVG-20010904/DTD/svg10.dtd">
<svg version="1.0" id="Ebene_1" xmlns="http://www.w3.org/2000/svg" xmlns:xlink="http://www.w3.org/1999/xlink" x="0px" y="0px"
	 width="28.868px" height="38.417px" viewBox="0 0 28.868 38.417" enable-background="new 0 0 28.868 38.417" xml:space="preserve">
<g>
	<circle fill="#787777" cx="14.494" cy="10.198" r="10"/>
	<path fill="#787777" d="M2.026,32.446c-1.132-0.58-1.906-1.759-1.906-3.117c0-0.634,0.169-1.229,0.464-1.742l2.739-5.278
		c0.424-0.777,1.248-1.305,2.196-1.305c0.518,0,0.999,0.157,1.398,0.427c2.16,1.458,4.774,2.305,7.576,2.305
		s5.416-0.847,7.576-2.305c0.399-0.27,0.881-0.427,1.398-0.427c0.948,0,1.772,0.527,2.196,1.305l2.739,5.278
		c0.295,0.513,0.464,1.108,0.464,1.742c0,1.358-0.774,2.537-1.906,3.117l-10.248,4.862c-0.669,0.331-1.423,0.518-2.22,0.518
		c-0.767,0-1.492-0.172-2.141-0.479L2.026,32.446z"/>
</g>
</svg>
