<?xml version="1.0" encoding="utf-8"?>
<!-- Generator: Adobe Illustrator 16.0.0, SVG Export Plug-In . SVG Version: 6.00 Build 0)  -->
<!DOCTYPE svg PUBLIC "-//W3C//DTD SVG 1.0//EN" "http://www.w3.org/TR/2001/REC-SVG-20010904/DTD/svg10.dtd">
<svg version="1.0" id="Ebene_1" xmlns="http://www.w3.org/2000/svg" xmlns:xlink="http://www.w3.org/1999/xlink" x="0px" y="0px"
	 width="28.868px" height="38.417px" viewBox="0 0 28.868 38.417" enable-background="new 0 0 28.868 38.417" xml:space="preserve">
<path fill="#787777" d="M28,32.301c0,2.762-2.238,5-5,5H6c-2.762,0-5-2.238-5-5v-26c0-2.762,2.238-5,5-5h17c2.762,0,5,2.238,5,5
	V32.301z M21.127,11.12c1.104,0,2-0.896,2-2c0-1.105-0.896-2-2-2H7.741c-1.104,0-2,0.896-2,2c0,1.104,0.896,2,2,2H21.127z
	 M18.924,19.049c1.104,0,2-0.895,2-2c0-1.104-0.896-2-2-2H7.741c-1.104,0-2,0.896-2,2c0,1.105,0.896,2,2,2H18.924z M12.5,26.981
	c1.104,0,2-0.896,2-2c0-1.105-0.896-2-2-2H7.741c-1.104,0-2,0.895-2,2c0,1.104,0.896,2,2,2H12.5z"/>
</svg>
